<svg width="704" height="131" viewBox="0 0 704 131" fill="none" xmlns="http://www.w3.org/2000/svg">
<path d="M155 42.014L155.072 26L225.059 26.047L225.017 42.023C216.419 42.2 207.819 42.255 199.22 42.19C199.52 55.855 199.63 69.524 199.55 83.193L199.494 109.48L180.234 109.499L180.308 42.042C171.873 42.195 163.435 42.186 155 42.014Z" fill="#171717"/>
<path d="M478.721 109.486C482.075 97.808 486.862 86.3101 491.054 74.9011C496.919 58.9421 502.553 42.843 508.823 27.04C515.965 27.053 523.242 26.8 530.355 27.432C536.253 41.564 541.299 56.033 546.527 70.418C551.282 83.501 556.259 96.398 560.472 109.68L540.072 109.52C538.473 104.592 537.167 97.3111 534.372 93.0581C533.455 91.6631 532.714 91.86 531.234 91.697C522.329 91.736 513.425 91.8371 504.522 91.9981C502.776 97.8791 500.691 103.683 498.728 109.496L478.721 109.486ZM519.316 47.769C515.576 57.219 512.987 67.076 509.186 76.487L519.793 76.423L529.495 76.085C527.97 71.517 521.634 49.845 519.316 47.769Z" fill="#171717"/>
<path d="M252.875 111.094C240.611 111.989 228.812 106.223 221.983 95.997C215.153 85.771 214.348 72.664 219.873 61.678C225.398 50.692 236.401 43.524 248.683 42.91C267.372 41.976 283.335 56.2521 284.483 74.9301C285.631 93.6071 271.538 109.732 252.875 111.094ZM247.42 59.0341C242.885 60.5121 240.045 62.325 237.852 66.74C235.244 71.993 235.035 80.056 236.992 85.571C238.295 89.242 240.857 92.274 244.41 93.925C247.359 95.295 250.438 95.1271 253.597 94.8291C257.901 93.2771 260.845 91.2031 262.874 86.9751C265.406 81.6971 265.447 73.6411 263.463 68.1551C262.118 64.4351 259.593 61.4351 255.887 59.9171C253.166 58.8021 250.299 58.9201 247.42 59.0341Z" fill="#171717"/>
<path d="M382.238 50.819C386.922 46.979 390.632 44.31 396.681 43.079C398.823 42.894 401.04 42.94 403.193 42.876L403.166 60.103C402.609 60.085 402.052 60.07 401.494 60.058C396.386 59.945 391.085 60.217 387.273 64.098C385.479 65.925 384.393 68.241 383.851 70.726C382.138 78.568 383.265 100.443 383.202 109.557C377.496 109.477 371.78 109.526 366.072 109.514L365.625 109.386C365.444 109.179 365.188 109.018 365.083 108.764C364.587 107.575 365.123 51.946 365.129 44.961L382.059 44.986L382.238 50.819Z" fill="#171717"/>
<path d="M583.924 50.2529C588.765 46.1979 592.416 44.1729 598.71 43.1239C605.309 42.4419 612.484 43.4909 618.103 47.1659C624.781 51.5329 628.645 58.7079 630.117 66.3909C632.137 76.9399 630.835 90.4469 624.43 99.3929C620.421 105.059 614.287 108.858 607.428 109.921C598.932 111.312 591.817 108.597 585.126 103.661L585.112 115.712L585.136 129.808C578.99 129.65 572.822 129.772 566.673 129.8L566.29 44.4029C572.028 44.3419 577.774 44.4149 583.512 44.4289L583.924 50.2529ZM593.708 59.0779C590.31 60.5299 587.73 62.0969 585.103 64.7699L585.154 87.9088C588.773 91.5208 592.552 93.5748 597.779 93.6018C599.686 93.6108 601.479 93.3989 603.336 92.9839C606.906 91.5029 608.902 89.7299 610.461 86.1339C612.813 80.7079 612.764 72.6949 610.564 67.2039C609.184 63.7619 606.818 61.1419 603.376 59.7029C600.326 58.4269 596.916 58.7429 593.708 59.0779Z" fill="#171717"/>
<path d="M655.899 50.6039C661.233 46.1209 665.53 44.2409 672.448 43.1329C678.301 42.4389 685.354 44.0609 690.337 47.1309C697.086 51.2899 701.077 58.2149 702.701 65.8119C704.978 76.4579 703.771 89.0779 697.686 98.3109C693.784 104.231 688.062 108.54 681.021 109.916C672.158 111.648 664.853 109.45 657.509 104.461L657.563 116.44L657.621 129.831C651.305 129.667 644.968 129.744 638.649 129.735L638.809 44.4729C644.393 44.4969 649.977 44.5569 655.56 44.6509L655.899 50.6039ZM666.96 59.0489C663.237 60.1689 660.935 61.4399 658.102 64.1599C657.911 72.3369 657.874 80.5179 657.989 88.6969C661.706 92.1449 665.687 93.8539 670.825 93.7009C672.474 93.6519 674.064 93.4759 675.675 93.1319C679.635 91.4149 681.825 89.5119 683.452 85.4229C685.577 80.0789 685.534 71.7079 683.088 66.4989C681.558 63.2399 678.913 60.8039 675.516 59.5899C672.795 58.6179 669.792 58.8459 666.96 59.0489Z" fill="#171717"/>
<path d="M429.016 50.9501C434.097 46.8961 438.217 44.7791 444.665 43.6231C445.83 43.4981 447.002 43.435 448.173 43.436C455.416 43.449 462.554 44.9171 467.722 50.4081C470.415 53.2691 472.152 56.8601 473.047 60.6641C475.418 70.7461 473.934 97.7021 473.83 109.561L455.277 109.496L455.401 83.9991C455.418 78.8271 455.826 73.2021 454.922 68.1121C454.355 64.9221 453.097 62.4231 450.301 60.6481C446.572 58.2801 441.784 58.7571 437.705 59.7451C436.449 60.3811 435.226 61.0881 434.226 62.0991C432.2 64.1451 431.088 67.23 430.534 70.001C428.864 78.35 429.993 100.017 430.026 109.623L411.521 109.595L411.418 44.8381L429.02 44.5491L429.016 50.9501Z" fill="#171717"/>
<path d="M336.043 102.911C330.908 108.152 325.795 110.642 318.348 110.72C311.31 110.794 304.219 109.464 299.115 104.22C296.195 101.219 294.345 97.3409 293.345 93.3049C290.718 82.6979 292.065 56.7969 292.164 44.6709C298.252 44.6029 304.354 44.7489 310.443 44.8189C310.359 54.8089 309.116 75.9419 310.785 84.6699C311.272 87.2209 312.237 89.6969 314.002 91.6399C316.129 93.9799 318.942 95.0499 322.066 95.1639C325.503 95.2889 328.849 94.3509 331.294 91.8419C333.068 90.0229 334.224 87.6599 334.803 85.1999C336.595 77.5809 335.414 54.2479 335.386 44.9299L353.564 44.9069L353.495 65.6579L353.405 109.411H336.848C336.349 107.26 336.216 105.106 336.043 102.911Z" fill="#171717"/>
<path d="M2.4955 61.534C1.7437 61.6099 1.09023 61.6239 0.337248 61.5645L0.0699622 61.1434C-0.104733 58.8797 0.465388 56.4373 0.879625 54.2155C2.96088 43.0548 7.62403 32.5359 14.979 23.8362C26.7818 9.87609 42.9436 1.67868 61.0766 0.113088C61.7587 0.0412667 62.2604 0.00819065 62.9435 0.140982C63.1093 0.493887 63.1992 0.800298 63.2111 1.1935C63.2772 3.39825 62.6675 5.79522 62.2661 7.97103C60.1202 20.1687 54.5306 31.4989 46.157 40.6237C34.9007 52.715 19.144 60.9279 2.4955 61.534Z" fill="#82C800"/>
<path d="M0 69.02C16.8214 68.0284 30.6891 63.527 43.8339 52.7848C60.9448 38.8004 68.4705 21.7731 70.5921 0C84.3549 1.34703 96.7783 6.31664 107.479 15.192C121.437 26.7691 129.218 42.6343 130.927 60.5327C128.364 60.7141 125.789 60.9151 123.251 61.3243C95.668 65.773 70.8065 86.4064 63.9334 113.951C63.0199 117.612 62.5285 121.323 62.28 125.083C62.1849 126.521 62.3027 127.98 62.1327 129.409C62.0857 129.8 61.9792 130.036 61.7498 130.353L60.9278 130.335C46.468 129.575 32.3358 123.307 21.6634 113.633C9.1394 102.281 0.777682 86.0328 0 69.02ZM82.3263 23.8745C78.063 24.6196 75.2248 28.6979 76.0081 32.955C76.7914 37.2115 80.8956 40.0126 85.1449 39.1915C89.341 38.3803 92.0991 34.3392 91.3256 30.1364C90.5526 25.9331 86.5364 23.1388 82.3263 23.8745ZM99.923 40.6497C95.6581 41.3379 92.7651 45.3609 93.4699 49.6226C94.1752 53.8849 98.2096 56.7618 102.469 56.0405C106.704 55.3228 109.562 51.3153 108.861 47.0774C108.16 42.8389 104.164 39.9655 99.923 40.6497ZM63.5846 40.9385C59.4283 42.0721 56.9869 46.3705 58.1423 50.5206C59.2976 54.6713 63.6089 57.0899 67.7533 55.9124C71.8668 54.7436 74.2632 50.4716 73.1162 46.3519C71.9696 42.2328 67.7105 39.8136 63.5846 40.9385ZM46.9139 57.6128C42.6289 58.0784 39.523 61.9144 39.9591 66.2024C40.3958 70.49 44.211 73.6217 48.5017 73.2145C52.8332 72.8032 56.0021 68.9435 55.5614 64.6146C55.1211 60.2857 51.2397 57.1432 46.9139 57.6128ZM82.0778 57.5033C77.8222 58.1388 74.8874 62.103 75.5219 66.3585C76.1569 70.614 80.121 73.5493 84.3766 72.9148C88.6326 72.2808 91.5685 68.3157 90.934 64.0597C90.2989 59.8036 86.3338 56.8683 82.0778 57.5033ZM30.0794 74.5487C27.2835 74.7088 24.7894 76.3592 23.5493 78.8708C22.3093 81.382 22.5149 84.3659 24.0877 86.6833C25.6611 89.0002 28.3582 90.2929 31.1494 90.0677C35.3962 89.7251 38.577 86.0297 38.284 81.7793C37.991 77.5289 34.3328 74.3053 30.0794 74.5487ZM63.8874 74.6024C59.7017 75.3325 56.8722 79.2811 57.5269 83.4793C58.181 87.6774 62.0774 90.5777 66.2864 90C69.0787 89.6166 71.4457 87.756 72.478 85.1342C73.5104 82.512 73.0469 79.5368 71.2659 77.3533C69.4843 75.1697 66.6631 74.1177 63.8874 74.6024ZM45.9327 91.6012C41.7366 92.6341 39.1727 96.8736 40.2066 101.07C41.2411 105.265 45.4816 107.828 49.6772 106.792C53.8707 105.757 56.4315 101.519 55.3976 97.3252C54.3636 93.1312 50.1267 90.5689 45.9327 91.6012Z" fill="#027CBA"/>
<path d="M70.3395 130.29L69.4978 130.359L69.178 129.983C68.8953 116.277 75.1035 102.374 83.5525 91.8192C95.0191 77.4937 111.913 69.7877 129.899 67.8118C130.151 67.757 130.471 67.801 130.73 67.8077L130.992 68.3073C131.079 70.5777 130.473 73.0175 130.095 75.26C127.898 88.273 122.401 99.7246 113.468 109.468C102.624 121.296 86.4626 129.541 70.3395 130.29Z" fill="#82C800"/>
</svg>
